# xmcd
#
# Track frame offsets: 
#        150
#        13465
#        21787
#        33402
#        47602
#        56085
#        70367
#        79730
#        88295
#        101690
#
# Disc length: 1473 seconds
#
# Revision: 1
# Processed by: cddbd v1.5.2PL0 Copyright (c) Steve Scherf et al.
# Submitted via: ExactAudioCopy v0.95b4
#
DISCID=8605bf0a
DTITLE=Village Singers - The Sweetest Song
DYEAR=1996
DGENRE=Gospel
TTITLE0=The Sweetest Song
TTITLE1=All Aboard
TTITLE2=Holy City
TTITLE3=An Old Log Cabin For Sale
TTITLE4=Lay Your Burdens At His Feet
TTITLE5=Sweet Beulah Land
TTITLE6=Living In the Name of Love
TTITLE7=Are You Washed In the Blood
TTITLE8=The Redeemed
TTITLE9=Until Then
EXTD=Actual Genre -  Bluegrass Gospel\n\nSubmitted by Rich Price
EXTT0=
EXTT1=
EXTT2=
EXTT3=
EXTT4=
EXTT5=
EXTT6=
EXTT7=
EXTT8=
EXTT9=
PLAYORDER=
